<svg fill="none" height="200" viewBox="0 0 1239 200" width="1239" xmlns="http://www.w3.org/2000/svg"><path d="m193.011 81.8366c0 3.1847-2.606 5.7903-5.79 5.7903-2.124 0-3.957-1.158-4.922-2.7986h-4.343c-.386 9.94-2.509 19.6867-6.369 28.8547-4.15 9.747-9.94 18.433-17.468 25.96-7.527 7.528-16.213 13.415-25.96 17.468-10.036 4.246-20.748 6.369-31.7501 6.369h-2.8952v-.096c-9.94-.386-19.6871-2.509-28.8551-6.37-9.747-4.149-18.4325-9.94-25.9599-17.467-7.5274-7.528-13.4143-16.213-17.4675-25.96-2.7987-6.659-4.7288-13.511-5.6938-20.6523h5.8868c5.2113 35.5143 35.321 63.1143 71.9931 64.4653v-13.51h2.8951c10.1326 0 19.8806-2.51 28.4696-7.045l-3.185-5.791 5.018-2.895 3.378 5.887c14.09-9.071 24.512-23.837 27.6-41.1113h5.887c-2.605 15.5373-10.519 29.8203-22.582 40.2423-11.581 10.037-26.25 15.924-41.5939 16.503v7.72c39.3739-1.544 71.2209-33.294 72.6689-72.7647h-10.809-2.606-6.948v-5.6939h6.948c-.965-20.6521-11.87-38.8916-28.469-49.4107l-3.474 6.0798-5.018-2.8952 3.474-6.0798c-5.404-2.7022-11.195-4.7288-17.371-5.8868v-5.8869c15.634 2.6057 30.013 10.6156 40.436 22.7753 9.94 11.5807 15.73 26.153 16.406 41.4008h7.72 5.887 4.343c.965-1.7371 2.798-2.7986 4.922-2.7986 2.991-.193 5.597 2.4126 5.597 5.5973zm-69.87-40.3393-5.887 10.2296 12.739 7.3344 7.238-4.1497-2.413-4.2463c-3.185 0-5.694-2.6056-5.694-5.7903s2.606-5.7903 5.791-5.7903c3.184 0 5.79 2.6056 5.79 5.7903 0 1.0616-.29 2.0266-.772 2.7987l5.404 9.2645-12.353 7.1414v14.8618h11.774v5.8869h-11.774v14.7653l7.238 4.1494 2.413-4.2459c-.483-.8686-.772-1.8336-.772-2.7987 0-3.1846 2.606-5.7903 5.79-5.7903 3.185 0 5.791 2.6057 5.791 5.7903 0 3.1847-2.51 5.6936-5.694 5.7906l-5.404 9.264-12.353-7.141-12.739 7.334 5.887 10.23-5.018 2.895-5.887-10.23-12.7389 7.335v8.396h4.9219c.965-1.737 2.799-2.799 4.922-2.799 3.184 0 5.79 2.606 5.79 5.791 0 3.184-2.606 5.79-5.79 5.79-2.123 0-3.957-1.158-4.922-2.799h-10.8087v-14.186l-12.7388-7.335-5.8868 10.23-5.0183-2.895 5.8869-10.23-12.7388-7.334-7.2379 4.15 2.4127 4.246c3.1847 0 5.6938 2.606 5.6938 5.79 0 3.185-2.6056 5.791-5.7903 5.791s-5.7903-2.606-5.7903-5.791c0-1.061.2895-2.026.772-2.798l-5.4043-9.265 12.3527-7.1414v-15.0548h-11.8702v-5.7904h11.7737v-14.7653l-7.2379-4.1497-2.4127 4.2462c.4826.8686.7721 1.8336.7721 2.7987 0 3.1847-2.6057 5.7903-5.7904 5.7903-3.1846 0-5.7903-2.6056-5.7903-5.7903s2.5092-5.6939 5.6938-5.7904l5.4043-9.2645 12.3527 7.1414 12.7388-7.3344-5.8869-10.2296 5.0183-2.8951 5.8868 10.2296 12.7387-7.3345v-8.3959h-4.9217c-.9651 1.7371-2.7987 2.7986-4.9218 2.7986-3.1847 0-5.7903-2.6056-5.7903-5.7903s2.6056-5.7903 5.7903-5.7903c2.1231 0 3.9567 1.158 4.9218 2.7986h10.8086v14.1863l12.7384 7.3344 5.887-10.2295zm-26.6356 18.0465c-12.3527 0-22.2927 10.0366-22.2927 22.2928 0 12.3527 10.0365 22.2924 22.2927 22.2924 12.3526 0 22.2926-10.0362 22.2926-22.2924 0-12.3527-9.94-22.2928-22.2926-22.2928zm-2.8951-11.3876-24.8019 14.2828 4.9217 2.7987c4.6323-6.2729 11.6772-10.6156 19.8802-11.4842zm-25.2845 33.6804c0-4.0532.8686-8.01 2.4127-11.4842l-4.9218-2.7986v28.5656l4.9218-2.7987c-1.5441-3.4741-2.4127-7.4309-2.4127-11.4841zm5.4043 16.5024-4.9217 2.799 24.8019 14.282v-5.597c-8.203-.772-15.3444-5.115-19.8802-11.484zm25.6705 17.178 24.8014-14.283-4.921-2.7985c-4.633 6.2725-11.677 10.6155-19.8804 11.4845zm27.6974-19.3976v-28.5656l-4.922 2.7986c1.544 3.4742 2.413 7.431 2.413 11.4842s-.869 8.01-2.413 11.4841zm-2.896-33.6804-24.8014-14.2828v5.6938c8.1064.8686 15.2474 5.2113 19.8804 11.4842zm-103.3568 22.2928h7.7204c.6755 15.2478 6.3694 29.8202 16.4059 41.4012 10.4226 12.063 24.7054 20.169 40.4358 22.775v-5.887c-6.1763-1.158-12.0632-3.088-17.371-5.887l3.4742-6.08-5.0183-2.895-3.4742 6.08c-16.5989-10.616-27.504-28.759-28.4691-49.4107h6.9484v-5.8869h-9.6505-11.0016c1.5441-39.3742 33.2943-71.22097 72.6685-72.76505v7.72045c-15.3443.6755-30.0131 6.4658-41.5938 16.5024-11.9666 10.4226-19.9766 24.7054-22.5822 40.2428h5.8868c3.0882-17.2745 13.5107-31.9433 27.6005-41.1113l3.3777 5.8868 5.0183-2.8952-3.3777-5.8868c8.589-4.4393 18.336-7.0449 28.4691-7.0449h2.8952v-13.51076c36.6724 1.35108 66.6854 28.95166 71.9934 64.46566h5.886c-.965-7.0449-2.895-13.9933-5.693-20.6522-4.15-9.747-9.94-18.4325-17.468-25.96-7.527-7.5274-16.213-13.4142-25.96-17.46744-9.168-3.86021-18.818-5.983334-28.8549-6.369356v-.096504h-2.8952c-11.0016 0-21.7137 2.12312-31.7503 6.36936-9.361 4.43924-18.143 10.32604-25.5739 17.85354-7.5274 7.4309-13.4143 16.2129-17.4675 25.8634-3.8602 9.168-5.9833 18.8186-6.3694 28.8551h-4.3427c-.96505-1.7371-2.79866-2.7986-4.92177-2.7986-3.18468 0-5.79033 2.6056-5.79033 5.7903s2.60565 5.7903 5.79033 5.7903c2.12311 0 3.95672-1.158 4.92177-2.7986z" fill="#f35c1e"/><path d="m130.697 90.2911c-4.68 18.7679-23.691 30.1899-42.463 25.5099-18.7645-4.679-30.1876-23.6893-25.506-42.4557 4.6774-18.7701 23.6884-30.1927 42.455-25.5138 18.771 4.6789 30.193 23.6911 25.513 42.4599z" fill="#f35c1e"/><path d="m112.167 76.8172c.697-4.6621-2.852-7.1682-7.707-8.84l1.575-6.3153-3.845-.9579-1.533 6.149c-1.0103-.2521-2.0483-.4896-3.08-.725l1.5441-6.1896-3.8423-.9579-1.5756 6.3132c-.8364-.1904-1.658-.3786-2.455-.5769l.0044-.0199-5.3019-1.3238-1.0228 4.106s2.8525.6537 2.7924.694c1.5569.3885 1.8384 1.419 1.7917 2.2359l-1.7938 7.1946c.1072.0272.2463.0666.3997.1282-.1282-.0318-.2647-.0666-.4064-.1005l-2.5142 10.0786c-.1903.473-.6732 1.1828-1.7617.9132.0385.0559-2.7945-.6973-2.7945-.6973l-1.9088 4.4005 5.0033 1.2472c.9308.2334 1.8429.4776 2.7412.7072l-1.591 6.3873 3.8403.958 1.5756-6.3196c1.0491.2848 2.0672.5475 3.0639.7951l-1.5702 6.2905 3.8449.958 1.5908-6.3762c6.5559 1.2406 11.4859.7404 13.5609-5.1889 1.672-4.7738-.083-7.5273-3.533-9.3229 2.513-.5794 4.405-2.2315 4.909-5.6443l-.001-.0008zm-8.784 12.3166c-1.188 4.7738-9.227 2.1932-11.8332 1.5461l2.1113-8.4627c2.606.6506 10.9629 1.938 9.7219 6.9166zm1.189-12.3858c-1.084 4.3423-7.7747 2.1363-9.9451 1.5953l1.9142-7.6751c2.1704.541 9.1599 1.5506 8.0309 6.0798z" fill="#fff"/><path clip-rule="evenodd" d="m81.0859 166.87c-.1391.047-.3664.595-.1861 1.247.2021.731 1.6604 1.913 2.0001 2.041.3396.127 3.122 2.585 3.6778 2.616 1.0604.058 1.4949 1.288 2.5035 1.322.4689.017 1.3922-.063 1.4834.087.0913.149.6912 1.53 1.2259 2.085.4483.465 1.2282 1.275 1.3777 1.558.1494.282.0169.784-.0661 1.183-.083.398-.0332.556 0 .788.0266.186.684 1.098 1.0094 1.469l-1.743-1.185c-.1858.419-.5801 1.32-.6715 1.571-.0914.252-.1715 1.019-.2 1.372l4.286-.886c-.5143.3-1.6972.951-2.3144 1.157s-1.8478.543-2.3859.686c-.1763.252-.6172.851-.9716 1.228-.3543.378-.8143.815-1 .986.9381-.176 3.1031-.605 4.2575-.914 1.1543-.309 2.424-.833 2.9145-1.057-.592.404-2.0569 1.314-3.181 1.714-1.4051.5-4.1339 1.172-4.9768 1.472-.6744.24-1.8335 1.024-2.3288 1.386.4524-.124 1.4801-.401 1.9716-.515s1.1572-.133 1.4287-.128c-.0286.104-.12.362-.2572.557-.1714.243-1.3429.671-1.7287 1.228-.3857.558-1.1001 3.486-1.2572 3.615-.1572.129-.316.236-.3732.336-.0571.1-.1697.507-.3269.793-.1257.228-.9422.845-1.2279 1.207l-23.181 4.109h66.5003l-25.528-9.154c-.195-.15-.223-.32 0-.904.168-.437 1.744-4.676 2.485-6.678l-1.632-1.354-1.436.806.767-1.361-1.434-.797-1.3612 1.666.6373-2.202-.9849-.71-1.738 1.811 1.0652-1.743c0-.107-.0805-.321-.0513-.734.0291-.413.9662-4.035.9662-4.035.112-.074.4166-.233.7391-.279.4036-.057.7506-.147 1.0576-.282.307-.134 1.253-.898 1.397-1.032.144-.135.658-.162.942-.262.326-.086 2.135-2.004 2.576-2.388.442-.384 1.528-1.185 2.036-1.941.407-.605.43-1.605.161-1.673-.27-.067-1.704.655-1.924.902-.275.309-.309 1.324-.684 1.7-.376.375-2.406 1.015-2.936 1.39-.424.3-.5.611-.485.729-.21.022-1.846-.081-2.467 0-.5007.065-.8316.453-1.3305.514s-1.8002.073-1.8002.073c-.1206-.447-.2886-1.306-.2456-1.392.0537-.107 1.0341-.432 1.0341-.635 0-.325-.5885-.651-.5641-.939.0113-.134.1923-.097.1013-.229-.0975-.142-.2937-.116-.5333-.256-.2395-.14-.2133-.426-.5024-.401-.2313.02-.4341.063-.4728.076.1508-.107.5044-.275.5251-.492.0258-.271-.2942-.539-.4428-.61-.0823.346-.7768.369-1.594.708-.741.308-.8916.84-.8981 1.415 0 .822.5729 1.251.8593 1.363.0258.13.0698.431.0388.601-.031.171-.1206.463-.1615.588-.2714.043-.8647.046-1.1386-.032-.3424-.097-.9159-.278-1.4392-.272-.5233.007-.8846.259-1.1431.213-.2584-.045-.5376-.361-1.203-.393-.6655-.033-.9294.09-1.1168 0-.1873-.091-.3253-.586-1.0155-.859s-2.6899-.825-2.9148-1.209-.2824-.758-.458-.974c0 0-.2549-.269-.5316-.52-.2768-.252-1.3408-.987-1.4798-.941zm6.5571 26.451c-.565.589-.8818 1.612-1.0022 2.114l13.1286-3.297c.1324-.512.4456-1.802.6386-2.865.242-1.329-.19-1.761-.155-2.71.027-.76.518-1.479.759-1.744l-1.3807.39c-.2934.339-1.2084 2.458-4.0568 3.501-1.3892.508-3.9022.817-4.2554.817-.3531 0-1.208 1.317-1.6553 1.788-.4474.47-1.3145 1.269-2.0208 2.006z" fill="#f35c1e" fill-rule="evenodd"/><g fill="#fff"><path d="m1234.37 145h-47.12v-87.5h4.5v83.25h42.62z"/><path d="m1108.12 131.5c2.08 3.583 5.04 6.208 8.88 7.875 3.83 1.667 8.7 2.5 14.62 2.5 6 0 10.88-.75 14.63-2.25 3.83-1.583 6.75-4.125 8.75-7.625 2.08-3.583 3.5-7.708 4.25-12.375s1.12-10.667 1.12-18c0-14-2.04-24.3333-6.12-31-4-6.6667-11.55-10-22.63-10-11.58 0-19.37 3.625-23.37 10.875-2 3.6667-3.42 7.875-4.25 12.625-.75 4.6667-1.13 10.5417-1.13 17.625 0 7 .38 12.792 1.13 17.375s2.12 8.708 4.12 12.375zm-3.37 3.25c-2.5-4-4.25-8.583-5.25-13.75-.92-5.25-1.38-11.708-1.38-19.375 0-15.3333 2.42-26.7083 7.25-34.125s13.58-11.125 26.25-11.125 21.42 3.7083 26.25 11.125c4.83 7.3333 7.25 18.8333 7.25 34.5 0 15.667-2.37 26.958-7.12 33.875-4.67 6.833-13.55 10.25-26.63 10.25s-21.96-3.792-26.62-11.375z"/><path d="m1083.71 143.625c-8.33 1.667-15.87 2.5-22.62 2.5-6.67 0-12.08-.958-16.25-2.875-4.08-2-7.25-5.042-9.5-9.125s-3.79-8.667-4.63-13.75c-.83-5.083-1.25-10.958-1.25-17.625 0-6.6667.21-12.125.63-16.375.5-4.25 1.37-8.375 2.62-12.375 1.34-4 3.13-7.2083 5.38-9.625 5-5.3333 12.5-8 22.5-8 7.33 0 15.04.7917 23.12 2.375l-.37 4.375c-8-1.6667-14.96-2.5-20.88-2.5-5.83 0-10.37.6667-13.62 2s-5.83 3.0833-7.75 5.25c-1.83 2.0833-3.29 5-4.38 8.75-1 3.6667-1.66 7.375-2 11.125-.33 3.75-.5 8.375-.5 13.875s.17 10.125.5 13.875c.34 3.75 1.05 7.417 2.13 11s2.58 6.417 4.5 8.5c4.25 4.583 10.67 6.875 19.25 6.875 6.5 0 14.08-.833 22.75-2.5z"/><path d="m953.462 131.5c2.083 3.583 5.042 6.208 8.875 7.875s8.708 2.5 14.625 2.5c6 0 10.875-.75 14.625-2.25 3.833-1.583 6.75-4.125 8.753-7.625 2.08-3.583 3.5-7.708 4.25-12.375s1.12-10.667 1.12-18c0-14-2.04-24.3333-6.123-31-4-6.6667-11.542-10-22.625-10-11.583 0-19.375 3.625-23.375 10.875-2 3.6667-3.417 7.875-4.25 12.625-.75 4.6667-1.125 10.5417-1.125 17.625 0 7 .375 12.792 1.125 17.375s2.125 8.708 4.125 12.375zm-3.375 3.25c-2.5-4-4.25-8.583-5.25-13.75-.917-5.25-1.375-11.708-1.375-19.375 0-15.3333 2.417-26.7083 7.25-34.125s13.583-11.125 26.25-11.125 21.417 3.7083 26.248 11.125c4.84 7.3333 7.25 18.8333 7.25 34.5 0 15.667-2.37 26.958-7.12 33.875-4.67 6.833-13.545 10.25-26.628 10.25s-21.958-3.792-26.625-11.375z"/><path d="m872.45 61.75v-4.25h62.5v4.25h-28.875v83.25h-4.5v-83.25z"/><path d="m806.86 131.5c2.084 3.583 5.042 6.208 8.875 7.875 3.834 1.667 8.709 2.5 14.625 2.5 6 0 10.875-.75 14.625-2.25 3.834-1.583 6.75-4.125 8.75-7.625 2.084-3.583 3.5-7.708 4.25-12.375s1.125-10.667 1.125-18c0-14-2.041-24.3333-6.125-31-4-6.6667-11.541-10-22.625-10-11.583 0-19.375 3.625-23.375 10.875-2 3.6667-3.416 7.875-4.25 12.625-.75 4.6667-1.125 10.5417-1.125 17.625 0 7 .375 12.792 1.125 17.375s2.125 8.708 4.125 12.375zm-3.375 3.25c-2.5-4-4.25-8.583-5.25-13.75-.916-5.25-1.375-11.708-1.375-19.375 0-15.3333 2.417-26.7083 7.25-34.125 4.834-7.4167 13.584-11.125 26.25-11.125 12.667 0 21.417 3.7083 26.25 11.125 4.834 7.3333 7.25 18.8333 7.25 34.5 0 15.667-2.375 26.958-7.125 33.875-4.666 6.833-13.541 10.25-26.625 10.25-13.083 0-21.958-3.792-26.625-11.375z"/><path d="m725.575 108.75v36.25h-4.5v-87.5h31.375c8.834 0 15.375 2 19.625 6s6.375 10.3333 6.375 19c0 14.75-6.041 23.292-18.125 25.625l19.75 36.875h-5.125l-19.5-36.25zm48.125-26.25c0-7.25-1.708-12.5-5.125-15.75-3.416-3.3333-8.791-5-16.125-5h-26.875v42.75h26.875c14.167 0 21.25-7.3333 21.25-22z"/><path d="m676.109 112.875h-27.375v32.125h-4.5v-87.5h31.875c9 0 15.542 2.2083 19.625 6.625 4.167 4.3333 6.25 11.0833 6.25 20.25 0 19-8.625 28.5-25.875 28.5zm-27.375-4.25h27.375c14.084 0 21.125-8.083 21.125-24.25 0-7.6667-1.666-13.3333-5-17-3.333-3.75-8.708-5.625-16.125-5.625h-27.375z"/></g><path d="m563.647 70.125c-10.583 0-15.875 3.7083-15.875 11.125 0 3.8333 1.25 6.5833 3.75 8.25 2.5 1.5833 8 3.5833 16.5 6 8.584 2.3333 14.626 5.167 18.126 8.5 3.5 3.25 5.25 8.417 5.25 15.5 0 9-2.584 15.75-7.75 20.25-5.084 4.417-12.042 6.625-20.876 6.625-7.083 0-14.916-.833-23.5-2.5l-4.5-.875 1.375-11.125c11.25 1.5 19.834 2.25 25.75 2.25 10.334 0 15.5-4.583 15.5-13.75 0-3.583-1.166-6.208-3.499-7.875-2.334-1.75-7.584-3.625-15.751-5.625-8.166-2.083-14.25-4.917-18.25-8.5-4-3.5833-6-9.25-6-17s2.5-13.5833 7.5-17.5c5.084-4 12.084-6 21-6 6.417 0 14.001.75 22.751 2.25l4.375.75-1.126 11.25c-11.666-1.3333-19.916-2-24.75-2z" fill="#f35c1e"/><path d="m450.923 145 21.125-85.625h27.625l21.25 85.625h-14l-4.625-18.375h-32.875l-4.625 18.375zm31.875-74-10.625 43.375h27.375l-10.5-43.375z" fill="#f35c1e"/><path d="m440.722 145h-48v-85.625h13.875v73.25h34.125z" fill="#f35c1e"/><path d="m312.426 71.75v-12.375h62.5v12.375h-24.125v73.25h-14v-73.25z" fill="#f35c1e"/><path d="m237.349 145 21.125-85.625h27.625l21.25 85.625h-14l-4.625-18.375h-32.875l-4.625 18.375zm31.875-74-10.625 43.375h27.375l-10.5-43.375z" fill="#f35c1e"/></svg>