<svg width="28" height="28" version="1.1" xmlns="http://www.w3.org/2000/svg" desc="Created with imagetracer.js version 1.2.6" ><path fill="rgb(55,26,0)" stroke="rgb(55,26,0)" stroke-width="1" opacity="0.09803921568627451" d="M 12.5 21 L 13.5 23 L 12.5 21 Z " /><path fill="rgb(55,26,0)" stroke="rgb(55,26,0)" stroke-width="1" opacity="0.09803921568627451" d="M 13.5 27 L 16 27.5 L 13.5 28 L 13.5 27 Z " /><path fill="rgb(0,0,0)" stroke="rgb(0,0,0)" stroke-width="1" opacity="0" d="M 0 0 L 11 0.5 L 6 3 L 4 10.5 L 12.5 20 Q 16.3 20.8 17 18.5 L 9 9.5 L 9 7.5 Q 9.5 4.5 13.5 5 L 22.5 12 L 25 10.5 L 23.5 7 L 21 5.5 L 19.5 3 L 16 0.5 L 28 0 L 28 28 L 16.5 28 L 16.5 27 L 23 21.5 L 24 17.5 L 17.5 10 Q 15.3 10.8 16 8.5 L 12.5 6 Q 10 7.2 11 11 L 14.5 10 L 14 11.5 L 14 13.5 L 19 18.5 L 19 21 Q 16 20 17 23 L 14.5 23 L 11 21 L 8.5 17 L 5.5 15 Q 3.3 15.8 4 19.5 L 7 24 L 11 26.5 L 10.5 28 L 0 28 L 0 0 Z " /><path fill="rgb(227,118,0)" stroke="rgb(227,118,0)" stroke-width="1" opacity="0.2823529411764706" d="M 9.5 10 L 14 13.5 L 15.5 10 L 17 10.5 L 15 11 Q 14.3 16.1 19 17.5 L 16.5 16 L 15.5 17 L 9.5 10 Z " /><path fill="rgb(227,118,0)" stroke="rgb(227,118,0)" stroke-width="1" opacity="0.2823529411764706" d="M 18.5 11 L 21.5 15 L 18.5 11 Z " /><path fill="rgb(227,118,0)" stroke="rgb(227,118,0)" stroke-width="1" opacity="0.2823529411764706" d="M 19.5 19 L 20 20.5 L 15.5 24 L 15.5 23 L 19 20.5 L 19.5 19 Z " /><path fill="rgb(227,118,0)" stroke="rgb(227,118,0)" stroke-width="1" opacity="0.2823529411764706" d="M 19.5 24 L 17.5 27 L 19.5 24 Z " /><path fill="rgb(226,110,0)" stroke="rgb(226,110,0)" stroke-width="1" opacity="0.9568627450980393" d="M 11.5 1 L 13 3.5 L 8 6 L 9 2 L 11.5 1 Z " /><path fill="rgb(226,110,0)" stroke="rgb(226,110,0)" stroke-width="1" opacity="0.9568627450980393" d="M 12 8 Q 15 7 14 10 Q 11 11 12 8 Z " /><path fill="rgb(226,110,0)" stroke="rgb(226,110,0)" stroke-width="1" opacity="0.9568627450980393" d="M 15 11 Q 17.7 9.9 17 12.5 L 18 15.5 L 15 13.5 L 15 11 Z " /><path fill="rgb(226,110,0)" stroke="rgb(226,110,0)" stroke-width="1" opacity="0.9568627450980393" d="M 12.5 14 L 16 19 Q 13.3 20.1 14 17.5 L 12.5 14 Z " /><path fill="rgb(226,110,0)" stroke="rgb(226,110,0)" stroke-width="1" opacity="0.9568627450980393" d="M 19.5 21 L 21 23.5 L 16 26 L 19.5 21 Z " /><path fill="rgb(68,26,0)" stroke="rgb(68,26,0)" stroke-width="1" opacity="0.5294117647058824" d="M 16.5 1 L 23.5 9 L 16.5 1 Z " /><path fill="rgb(68,26,0)" stroke="rgb(68,26,0)" stroke-width="1" opacity="0.5294117647058824" d="M 14.5 4 L 23 11.5 L 21.5 12 L 14.5 4 Z " /><path fill="rgb(68,26,0)" stroke="rgb(68,26,0)" stroke-width="1" opacity="0.5294117647058824" d="M 6.5 16 L 12.5 23 L 6.5 16 Z " /><path fill="rgb(68,26,0)" stroke="rgb(68,26,0)" stroke-width="1" opacity="0.5294117647058824" d="M 4.5 19 L 10.5 26 L 4.5 19 Z " /><path fill="rgb(78,31,0)" stroke="rgb(78,31,0)" stroke-width="1" opacity="0.984313725490196" d="M 12 1 L 15.5 1 L 24 9.5 Q 24.8 12.1 21.5 11 L 12 2.5 L 12 1 Z " /><path fill="rgb(78,31,0)" stroke="rgb(78,31,0)" stroke-width="1" opacity="0.984313725490196" d="M 12.5 7 L 15 8.5 L 13.5 11 L 14 9.5 Q 14.7 6.9 12 8 L 11.5 10 L 11 8.5 L 12.5 7 Z " /><path fill="rgb(78,31,0)" stroke="rgb(78,31,0)" stroke-width="1" opacity="0.984313725490196" d="M 5.5 16 Q 8.8 22.9 16 24 Q 17.7 28.1 13.5 27 L 4 18.5 L 5.5 16 Z " /><path fill="rgb(252,154,2)" stroke="rgb(252,154,2)" stroke-width="1" opacity="0.9176470588235294" d="M 8.5 3 L 8 4.5 L 9 6.5 L 8 8.5 L 15 19.5 L 13.5 20 L 5 11.5 L 5 7.5 L 8.5 3 Z " /><path fill="rgb(252,154,2)" stroke="rgb(252,154,2)" stroke-width="1" opacity="0.9176470588235294" d="M 17.5 11 L 23 16.5 L 23 20.5 L 20 22.5 L 17.5 11 Z " /><path fill="rgb(195,143,7)" stroke="rgb(195,143,7)" stroke-width="1" opacity="0.058823529411764705" d="M 9.5 1 L 5.5 6 L 6 4.5 Q 5.3 2.3 7.5 3 L 9.5 1 Z " /><path fill="rgb(195,143,7)" stroke="rgb(195,143,7)" stroke-width="1" opacity="0.058823529411764705" d="M 10.5 5 L 9.5 7 L 10.5 5 Z " /><path fill="rgb(195,143,7)" stroke="rgb(195,143,7)" stroke-width="1" opacity="0.058823529411764705" d="M 4.5 8 L 5 10.5 L 4 10.5 L 4.5 8 Z " /><path fill="rgb(195,143,7)" stroke="rgb(195,143,7)" stroke-width="1" opacity="0.058823529411764705" d="M 5.5 12 L 12.5 20 L 10 19.5 Q 12.3 18.3 9.5 17 L 8 17.5 L 9 16.5 L 5.5 12 Z " /><path fill="rgb(195,143,7)" stroke="rgb(195,143,7)" stroke-width="1" opacity="0.058823529411764705" d="M 23.5 17 L 24 19.5 L 23 19.5 L 23.5 17 Z " /><path fill="rgb(195,143,7)" stroke="rgb(195,143,7)" stroke-width="1" opacity="0.058823529411764705" d="M 22.5 21 L 23.5 23 L 22.5 21 Z " /></svg>