<?xml version="1.0" encoding="UTF-8"?>
<svg version="1.1" xmlns="http://www.w3.org/2000/svg" width="32" height="32">
<path d="M0 0 C4.8846525 2.26787438 7.73212562 5.1153475 10 10 C10.75381535 15.5997712 10.77303575 20.33499991 8.375 25.5 C3.80134327 30.3143755 0.6912538 32.25156236 -6 32.5 C-12.6912538 32.25156236 -15.80134327 30.3143755 -20.375 25.5 C-22.77303575 20.33499991 -22.75381535 15.5997712 -22 10 C-17.52212837 0.3553534 -9.85292056 -1.32635469 0 0 Z " fill="#191818" transform="translate(22,0)"/>
<path d="M0 0 C4.95302218 0.38936006 7.50355043 2.89752267 10.8125 6.3125 C11.31458984 6.79912109 11.81667969 7.28574219 12.33398438 7.78710938 C15.32549619 10.81118187 16 11.56998188 16 16 C12.65626525 15.44271087 9.96687001 14.64826111 7 13 C6.01 14.485 6.01 14.485 5 16 C2.375 16.1875 2.375 16.1875 0 16 C0.55728913 12.65626525 1.35173889 9.96687001 3 7 C2.505 6.5875 2.01 6.175 1.5 5.75 C0 4 0 4 0 0 Z " fill="#EFEFEF" transform="translate(8,8)"/>
<path d="M0 0 C-0.3125 2.375 -0.3125 2.375 -1 5 C-1.99 5.66 -2.98 6.32 -4 7 C-4 6.01 -4 5.02 -4 4 C-4.99 3.67 -5.98 3.34 -7 3 C-4.49955934 -0.00052879 -4.2621484 0 0 0 Z " fill="#DB712E" transform="translate(24,8)"/>
</svg>
